<svg xmlns="http://www.w3.org/2000/svg" width="24" height="25" viewBox="0 0 24 25" fill="none">
<path d="M21.75 12.0902C21.7469 14.4731 20.8726 16.7727 19.2918 18.5558C17.7109 20.3389 15.5326 21.4823 13.1672 21.7708C13.1145 21.7768 13.0612 21.7715 13.0107 21.7553C12.9602 21.7392 12.9137 21.7125 12.8743 21.6771C12.8349 21.6416 12.8034 21.5983 12.782 21.5498C12.7606 21.5013 12.7497 21.4488 12.75 21.3958V14.3402H15C15.1028 14.3404 15.2046 14.3195 15.299 14.2787C15.3934 14.238 15.4784 14.1782 15.5487 14.1033C15.619 14.0283 15.6732 13.9396 15.7078 13.8428C15.7424 13.746 15.7568 13.6431 15.75 13.5405C15.7334 13.3476 15.6444 13.1682 15.501 13.0383C15.3575 12.9084 15.1701 12.8376 14.9766 12.8402H12.75V10.5902C12.75 10.1924 12.908 9.81083 13.1893 9.52953C13.4706 9.24822 13.8522 9.09019 14.25 9.09019H15.75C15.8528 9.09041 15.9546 9.0695 16.049 9.02874C16.1434 8.98798 16.2284 8.92825 16.2987 8.85325C16.369 8.77826 16.4232 8.6896 16.4578 8.59279C16.4924 8.49598 16.5068 8.39309 16.5 8.2905C16.4834 8.09731 16.3942 7.9176 16.2503 7.78763C16.1064 7.65766 15.9185 7.5871 15.7247 7.59019H14.25C13.4543 7.59019 12.6913 7.90626 12.1287 8.46887C11.5661 9.03148 11.25 9.79454 11.25 10.5902V12.8402H8.99999C8.89717 12.84 8.79541 12.8609 8.70102 12.9016C8.60663 12.9424 8.52162 13.0021 8.45129 13.0771C8.38095 13.1521 8.32679 13.2408 8.29216 13.3376C8.25753 13.4344 8.24318 13.5373 8.24999 13.6399C8.26658 13.8331 8.35582 14.0128 8.49971 14.1427C8.6436 14.2727 8.83143 14.3433 9.0253 14.3402H11.25V21.3977C11.2503 21.4506 11.2394 21.503 11.2181 21.5514C11.1967 21.5998 11.1653 21.6432 11.126 21.6786C11.0867 21.714 11.0403 21.7407 10.9899 21.7569C10.9396 21.7731 10.8863 21.7785 10.8337 21.7727C8.40501 21.4769 6.17583 20.2801 4.58743 18.4191C2.99904 16.5582 2.16719 14.1687 2.25655 11.7236C2.44405 6.66112 6.54468 2.5455 11.6109 2.34862C12.9226 2.29782 14.231 2.51208 15.4579 2.97859C16.6849 3.4451 17.8051 4.15428 18.7516 5.06371C19.6982 5.97314 20.4516 7.06414 20.9668 8.27144C21.4819 9.47875 21.7483 10.7776 21.75 12.0902Z" fill="white"/>
</svg>