<svg xmlns="http://www.w3.org/2000/svg" width="24" height="25" viewBox="0 0 24 25" fill="none">
<path d="M8.625 11.3401H6V9.09009H8.625C8.92337 9.09009 9.20952 9.20861 9.4205 9.41959C9.63147 9.63057 9.75 9.91672 9.75 10.2151C9.75 10.5135 9.63147 10.7996 9.4205 11.0106C9.20952 11.2216 8.92337 11.3401 8.625 11.3401ZM9 12.8401H6V15.8401H9C9.39782 15.8401 9.77936 15.6821 10.0607 15.4007C10.342 15.1194 10.5 14.7379 10.5 14.3401C10.5 13.9423 10.342 13.5607 10.0607 13.2794C9.77936 12.9981 9.39782 12.8401 9 12.8401ZM16.5 11.3401C16.0348 11.3402 15.5811 11.4845 15.2014 11.7532C14.8216 12.0218 14.5344 12.4015 14.3794 12.8401H18.6206C18.4656 12.4015 18.1784 12.0218 17.7986 11.7532C17.4189 11.4845 16.9652 11.3402 16.5 11.3401ZM22.5 5.34009V18.8401C22.5 19.2379 22.342 19.6194 22.0607 19.9007C21.7794 20.1821 21.3978 20.3401 21 20.3401H3C2.60218 20.3401 2.22064 20.1821 1.93934 19.9007C1.65804 19.6194 1.5 19.2379 1.5 18.8401V5.34009C1.5 4.94226 1.65804 4.56073 1.93934 4.27943C2.22064 3.99812 2.60218 3.84009 3 3.84009H21C21.3978 3.84009 21.7794 3.99812 22.0607 4.27943C22.342 4.56073 22.5 4.94226 22.5 5.34009ZM13.5 8.34009C13.5 8.539 13.579 8.72977 13.7197 8.87042C13.8603 9.01107 14.0511 9.09009 14.25 9.09009H18.75C18.9489 9.09009 19.1397 9.01107 19.2803 8.87042C19.421 8.72977 19.5 8.539 19.5 8.34009C19.5 8.14118 19.421 7.95041 19.2803 7.80976C19.1397 7.66911 18.9489 7.59009 18.75 7.59009H14.25C14.0511 7.59009 13.8603 7.66911 13.7197 7.80976C13.579 7.95041 13.5 8.14118 13.5 8.34009ZM12 14.3401C11.9998 13.8487 11.8788 13.365 11.6479 12.9313C11.4169 12.4976 11.0829 12.1273 10.6753 11.8529C10.9836 11.4667 11.1767 11.0014 11.2323 10.5104C11.2878 10.0193 11.2037 9.52261 10.9895 9.07729C10.7753 8.63197 10.4398 8.25615 10.0215 7.99306C9.60321 7.72997 9.11915 7.59029 8.625 7.59009H5.25C5.05109 7.59009 4.86032 7.66911 4.71967 7.80976C4.57902 7.95041 4.5 8.14118 4.5 8.34009V16.5901C4.5 16.789 4.57902 16.9798 4.71967 17.1204C4.86032 17.2611 5.05109 17.3401 5.25 17.3401H9C9.79565 17.3401 10.5587 17.024 11.1213 16.4614C11.6839 15.8988 12 15.1357 12 14.3401ZM20.25 13.5901C20.25 12.7326 19.956 11.901 19.4172 11.2339C18.8784 10.5669 18.1272 10.1046 17.2889 9.92421C16.4506 9.74382 15.5758 9.85618 14.8102 10.2426C14.0447 10.629 13.4348 11.2661 13.082 12.0476C12.7292 12.8292 12.655 13.7081 12.8717 14.5378C13.0883 15.3675 13.5828 16.0978 14.2727 16.6072C14.9625 17.1165 15.8061 17.374 16.6628 17.3368C17.5195 17.2995 18.3375 16.9698 18.9806 16.4026C19.1298 16.2709 19.2206 16.0854 19.233 15.8868C19.2454 15.6882 19.1784 15.4929 19.0467 15.3437C18.9815 15.2698 18.9024 15.2095 18.8139 15.1662C18.7254 15.1229 18.6293 15.0975 18.531 15.0913C18.3324 15.0789 18.137 15.1459 17.9878 15.2776C17.7117 15.5208 17.3801 15.6927 17.0222 15.778C16.6642 15.8633 16.2908 15.8596 15.9346 15.767C15.5785 15.6745 15.2505 15.496 14.9793 15.2472C14.7082 14.9985 14.5022 14.687 14.3794 14.3401H19.5C19.6989 14.3401 19.8897 14.2611 20.0303 14.1204C20.171 13.9798 20.25 13.789 20.25 13.5901Z" fill="white"/>
</svg>