<svg xmlns="http://www.w3.org/2000/svg" width="24" height="25" viewBox="0 0 24 25" fill="none">
<path d="M8.74406 3.54569C8.68357 3.50828 8.63497 3.45443 8.60393 3.39044C8.57289 3.32645 8.56069 3.25495 8.56875 3.18428C8.57681 3.11362 8.60479 3.0467 8.64945 2.99134C8.6941 2.93599 8.75357 2.89447 8.82093 2.87163C10.1887 2.40034 11.6443 2.23953 13.082 2.40088C14.5197 2.56223 15.9035 3.04168 17.1328 3.80444C17.1774 3.83253 17.2155 3.86969 17.2447 3.91349C17.274 3.95729 17.2936 4.00676 17.3025 4.05868C17.3113 4.1106 17.3091 4.16379 17.2961 4.2148C17.283 4.26582 17.2593 4.3135 17.2266 4.35476C16.1411 5.74186 14.8099 6.91764 13.2994 7.82351C12.0792 6.11 10.5308 4.65593 8.74406 3.54569ZM11.9606 8.52757C10.5914 6.65923 8.79004 5.15028 6.71062 4.12976C6.65107 4.10084 6.58485 4.08845 6.51888 4.0939C6.45291 4.09934 6.38962 4.12241 6.33562 4.16069C4.65223 5.36482 3.39384 7.07155 2.74124 9.03569C2.72485 9.08592 2.71925 9.13904 2.72481 9.19157C2.73038 9.24411 2.74698 9.29488 2.77354 9.34055C2.80009 9.38622 2.836 9.42577 2.8789 9.4566C2.9218 9.48743 2.97074 9.50884 3.02249 9.51944C4.00101 9.73037 4.999 9.83783 5.99999 9.84007C8.05867 9.84119 10.0928 9.39328 11.9606 8.52757ZM21.6919 11.0298C21.4535 8.85525 20.4894 6.82447 18.9553 5.26507C18.9179 5.22707 18.8728 5.19749 18.8231 5.17829C18.7733 5.15909 18.7201 5.15072 18.6668 5.15374C18.6136 5.15675 18.5616 5.17109 18.5144 5.19578C18.4671 5.22048 18.4257 5.25496 18.3928 5.29694C17.2063 6.80855 15.7549 8.09191 14.1094 9.08444C14.6234 9.97504 15.0489 10.9139 15.3797 11.8876C16.7228 11.5235 18.1084 11.3393 19.5 11.3401C20.0952 11.3401 20.6898 11.3736 21.2812 11.4404C21.3363 11.4459 21.3919 11.4391 21.444 11.4206C21.4961 11.4021 21.5435 11.3723 21.5827 11.3333C21.622 11.2943 21.6521 11.2472 21.671 11.1952C21.6898 11.1432 21.697 11.0876 21.6919 11.0326V11.0298ZM15.7941 13.3266C16.0719 14.5087 16.2119 15.7189 16.2112 16.9332C16.2107 18.0954 16.0814 19.2541 15.8259 20.3879C15.8096 20.4573 15.8134 20.53 15.8369 20.5973C15.8604 20.6647 15.9027 20.7239 15.9587 20.7681C16.0147 20.8123 16.0821 20.8396 16.1531 20.8468C16.2241 20.854 16.2956 20.8409 16.3594 20.8088C17.7813 20.0955 19.0076 19.0459 19.9318 17.7512C20.856 16.4564 21.4502 14.9556 21.6628 13.3791C21.6692 13.33 21.6658 13.28 21.6528 13.2322C21.6398 13.1843 21.6175 13.1395 21.587 13.1004C21.5566 13.0612 21.5187 13.0285 21.4756 13.0041C21.4324 12.9797 21.3848 12.9641 21.3356 12.9582C19.4817 12.7196 17.5989 12.847 15.7941 13.3332V13.3266ZM13.9528 12.3469C13.6505 11.4605 13.2615 10.606 12.7912 9.79601C10.6721 10.8141 8.35096 11.3418 5.99999 11.3401C4.90105 11.3401 3.80511 11.2254 2.72999 10.9979C2.67812 10.9869 2.62452 10.9871 2.57272 10.9984C2.52092 11.0097 2.47211 11.0318 2.42949 11.0634C2.38688 11.0949 2.35144 11.1351 2.32551 11.1814C2.29958 11.2276 2.28374 11.2788 2.27905 11.3316C2.25968 11.5816 2.24968 11.8344 2.24905 12.0901C2.24856 13.4251 2.523 14.746 3.05526 15.9703C3.58752 17.1947 4.36621 18.2963 5.3428 19.2066C5.384 19.2444 5.43311 19.2725 5.48655 19.2888C5.53999 19.3051 5.5964 19.3093 5.65166 19.3011C5.70693 19.2928 5.75964 19.2723 5.80596 19.241C5.85228 19.2098 5.89103 19.1685 5.91937 19.1204C7.74919 16.0155 10.5829 13.6273 13.9528 12.3498V12.3469ZM7.09593 20.0823C7.07129 20.1253 7.05542 20.1728 7.04925 20.222C7.04308 20.2712 7.04672 20.3211 7.05998 20.3689C7.07323 20.4166 7.09582 20.4613 7.12646 20.5003C7.15709 20.5393 7.19515 20.5718 7.23843 20.596C9.19905 21.6953 11.4796 22.0825 13.6931 21.6919C13.759 21.6805 13.8205 21.6513 13.871 21.6075C13.9215 21.5637 13.9592 21.507 13.98 21.4435C14.4635 19.9899 14.7104 18.468 14.7112 16.936C14.7114 15.8806 14.5938 14.8285 14.3606 13.7991C11.2887 14.996 8.72312 17.215 7.09593 20.0823Z" fill="white"/>
</svg>