<svg xmlns="http://www.w3.org/2000/svg" width="60" height="61" viewBox="0 0 60 61" fill="none">
<g clip-path="url(#clip0_6167_111971)">
<path fill-rule="evenodd" clip-rule="evenodd" d="M57.6393 3.60243L57.3443 2.81555L56.5574 2.52047C48.3934 -0.52871 39.2459 1.4385 33.0492 7.53686L27.1475 13.4385L13.8689 14.127L2.85246 25.2418L12.3934 28.2909L8.85246 31.8319L10.918 33.8975L6.39344 40.8811L19.2787 53.7663L26.2623 49.1434L28.3279 51.209L31.8689 47.668L34.918 57.209L46.0328 46.0942L46.7213 32.8155L52.6229 26.9139C58.7213 20.9139 60.6885 11.7663 57.6393 3.60243ZM9.7377 23.5696L15.541 17.7663L23.3115 17.3729L15.3443 25.3401L9.7377 23.5696ZM19.7705 49.1434L11.1148 40.4877L13.6721 36.6516L23.6066 46.586L19.7705 49.1434ZM42.3934 44.6188L36.5902 50.4221L34.8197 44.8155L42.7869 36.8483L42.3934 44.6188ZM28.3279 46.0942L14.0656 31.8319L35.7049 10.1926C40.6229 5.27456 47.9016 3.50407 54.4918 5.66801C56.6557 12.2582 54.8852 19.5368 49.9672 24.4549L28.3279 46.0942ZM44.8525 9.79915C41.8033 9.79915 39.3443 12.2582 39.3443 15.3073C39.3443 18.3565 41.8033 20.8155 44.8525 20.8155C47.9016 20.8155 50.3607 18.3565 50.3607 15.3073C50.3607 13.8319 49.7705 12.4549 48.7869 11.3729C47.7049 10.3893 46.3279 9.79915 44.8525 9.79915ZM46.1311 16.6844C45.4426 17.3729 44.2623 17.3729 43.5738 16.6844C42.8852 15.9959 42.8852 14.8155 43.5738 14.127C44.2623 13.4385 45.4426 13.4385 46.1311 14.127C46.8197 14.7172 46.8197 15.8975 46.1311 16.6844ZM0 47.2745L4.13115 43.1434L6.68852 45.7008L2.55738 49.9303L0 47.2745ZM12.8852 60.1598L10.3279 57.5041L14.459 53.2745L17.0164 55.9303L12.8852 60.1598ZM3.04918 54.2582L9.2459 48.0614L11.8033 50.7172L5.60656 56.9139L3.04918 54.2582Z" fill="#FFFF00"/>
</g>
<defs>
<clipPath id="clip0_6167_111971">
<rect width="60" height="60" fill="white" transform="translate(0 0.159912)"/>
</clipPath>
</defs>
</svg>