<svg xmlns="http://www.w3.org/2000/svg" width="60" height="59" viewBox="0 0 60 59" fill="none">
<g clip-path="url(#clip0_6167_111963)">
<path fill-rule="evenodd" clip-rule="evenodd" d="M59.3001 33.6599C58.0001 28.6599 54.8001 24.4599 50.4001 21.8599C49.9001 21.5599 49.5001 21.3599 49.0001 21.1599C49.0001 20.6599 49.1001 20.0599 49.1001 19.5599C49.3001 8.95995 40.8001 0.359953 30.3001 0.159953C19.7001 -0.0400469 11.0001 8.45995 10.9001 18.9599C10.9001 19.1599 10.9001 19.3599 10.9001 19.5599C10.9001 20.0599 10.9001 20.6599 11.0001 21.1599C10.5001 21.3599 10.1001 21.6599 9.60011 21.8599C5.20011 24.4599 2.00011 28.6599 0.700115 33.6599C-0.599885 38.6599 0.100115 43.9599 2.60011 48.3599C6.00011 54.3599 12.3001 58.0599 19.2001 58.0599C22.6001 58.0599 25.9001 57.1599 28.7001 55.4599C29.2001 55.1599 29.6001 54.8599 30.0001 54.6599C30.4001 54.9599 30.9001 55.2599 31.3001 55.4599C34.2001 57.1599 37.5001 58.0599 40.8001 58.0599C47.7001 58.0599 54.0001 54.3599 57.4001 48.3599C60.0001 43.9599 60.7001 38.6599 59.3001 33.6599ZM14.6001 19.5599C14.6001 11.0599 21.5001 4.15995 30.0001 4.15995C38.5001 4.15995 45.4001 11.0599 45.4001 19.5599C45.4001 19.6599 45.4001 19.7599 45.4001 19.8599C40.1001 18.5599 34.5001 19.6599 30.0001 22.7599C25.5001 19.5599 19.9001 18.5599 14.6001 19.8599C14.6001 19.7599 14.6001 19.6599 14.6001 19.5599ZM30.0001 49.7599C27.0001 46.7599 25.4001 42.6599 25.5001 38.4599C28.5001 39.1599 31.6001 39.1599 34.5001 38.4599C34.6001 42.6599 33.0001 46.7599 30.0001 49.7599ZM30.0001 35.1599C28.6001 35.1599 27.3001 34.9599 26.0001 34.6599C26.3001 33.3599 26.9001 32.0599 27.5001 30.8599C28.2001 29.6599 29.0001 28.5599 30.0001 27.5599C31.0001 28.5599 31.8001 29.6599 32.5001 30.8599C33.2001 32.0599 33.7001 33.3599 34.0001 34.6599C32.7001 35.0599 31.4001 35.1599 30.0001 35.1599ZM22.5001 33.2599C18.8001 31.1599 16.2001 27.6599 15.1001 23.5599C16.4001 23.1599 17.7001 23.0599 19.1001 23.0599C21.9001 23.0599 24.7001 23.8599 27.1001 25.3599C26.0001 26.4599 25.1001 27.7599 24.4001 29.0599C23.6001 30.3599 23.0001 31.7599 22.5001 33.2599ZM35.7001 28.9599C34.9001 27.6599 34.0001 26.3599 33.0001 25.2599C35.4001 23.7599 38.1001 23.0599 41.0001 22.9599C42.3001 22.9599 43.7001 23.1599 45.0001 23.4599C43.9001 27.5599 41.3001 31.0599 37.6001 33.1599C37.0001 31.7599 36.4001 30.3599 35.7001 28.9599ZM19.1001 54.3599C13.6001 54.3599 8.50011 51.3599 5.70011 46.5599C3.60011 42.9599 3.10011 38.6599 4.20011 34.6599C5.20011 30.6599 7.80011 27.2599 11.4001 25.1599C11.5001 25.0599 11.6001 25.0599 11.6001 25.0599C13.1001 30.3599 16.8001 34.7599 21.8001 37.1599C21.4001 42.6599 23.3001 48.1599 27.0001 52.1599C26.9001 52.1599 26.8001 52.2599 26.8001 52.2599C24.5001 53.6599 21.8001 54.3599 19.1001 54.3599ZM54.2001 46.5599C51.5001 51.3599 46.4001 54.3599 40.8001 54.3599C38.1001 54.3599 35.4001 53.6599 33.1001 52.2599C33.1001 52.2599 33.0001 52.1599 32.9001 52.1599C36.7001 48.0599 38.6001 42.6599 38.1001 37.1599C43.1001 34.7599 46.8001 30.3599 48.3001 25.0599C48.4001 25.1599 48.5001 25.1599 48.5001 25.1599C52.1001 27.2599 54.6001 30.6599 55.7001 34.6599C56.8001 38.6599 56.3001 42.9599 54.2001 46.5599Z" fill="#FFFF00"/>
</g>
<defs>
<clipPath id="clip0_6167_111963">
<rect width="60" height="58" fill="white" transform="translate(0 0.159912)"/>
</clipPath>
</defs>
</svg>