<svg xmlns="http://www.w3.org/2000/svg" width="24" height="25" viewBox="0 0 24 25" fill="none">
<path d="M20.25 2.34009H3.75C3.35218 2.34009 2.97064 2.49812 2.68934 2.77943C2.40804 3.06073 2.25 3.44226 2.25 3.84009V20.3401C2.25 20.7379 2.40804 21.1194 2.68934 21.4007C2.97064 21.6821 3.35218 21.8401 3.75 21.8401H20.25C20.6478 21.8401 21.0294 21.6821 21.3107 21.4007C21.592 21.1194 21.75 20.7379 21.75 20.3401V3.84009C21.75 3.44226 21.592 3.06073 21.3107 2.77943C21.0294 2.49812 20.6478 2.34009 20.25 2.34009ZM9 16.5901C9 16.789 8.92098 16.9798 8.78033 17.1204C8.63968 17.2611 8.44891 17.3401 8.25 17.3401C8.05109 17.3401 7.86032 17.2611 7.71967 17.1204C7.57902 16.9798 7.5 16.789 7.5 16.5901V10.5901C7.5 10.3912 7.57902 10.2004 7.71967 10.0598C7.86032 9.91911 8.05109 9.84009 8.25 9.84009C8.44891 9.84009 8.63968 9.91911 8.78033 10.0598C8.92098 10.2004 9 10.3912 9 10.5901V16.5901ZM8.25 9.09009C8.0275 9.09009 7.80999 9.02411 7.62498 8.90049C7.43998 8.77688 7.29578 8.60117 7.21064 8.39561C7.12549 8.19004 7.10321 7.96384 7.14662 7.74561C7.19002 7.52738 7.29717 7.32693 7.4545 7.16959C7.61184 7.01226 7.81229 6.90511 8.03052 6.8617C8.24875 6.8183 8.47495 6.84057 8.68052 6.92572C8.88609 7.01087 9.06179 7.15507 9.1854 7.34007C9.30902 7.52508 9.375 7.74258 9.375 7.96509C9.375 8.26346 9.25647 8.5496 9.0455 8.76058C8.83452 8.97156 8.54837 9.09009 8.25 9.09009ZM17.25 16.5901C17.25 16.789 17.171 16.9798 17.0303 17.1204C16.8897 17.2611 16.6989 17.3401 16.5 17.3401C16.3011 17.3401 16.1103 17.2611 15.9697 17.1204C15.829 16.9798 15.75 16.789 15.75 16.5901V13.2151C15.75 12.7178 15.5525 12.2409 15.2008 11.8893C14.8492 11.5376 14.3723 11.3401 13.875 11.3401C13.3777 11.3401 12.9008 11.5376 12.5492 11.8893C12.1975 12.2409 12 12.7178 12 13.2151V16.5901C12 16.789 11.921 16.9798 11.7803 17.1204C11.6397 17.2611 11.4489 17.3401 11.25 17.3401C11.0511 17.3401 10.8603 17.2611 10.7197 17.1204C10.579 16.9798 10.5 16.789 10.5 16.5901V10.5901C10.5009 10.4064 10.5693 10.2294 10.692 10.0927C10.8148 9.95605 10.9834 9.86919 11.166 9.84861C11.3485 9.82803 11.5323 9.87517 11.6824 9.98108C11.8325 10.087 11.9385 10.2443 11.9803 10.4232C12.4877 10.079 13.0792 9.87955 13.6914 9.8462C14.3036 9.81285 14.9133 9.94687 15.455 10.2339C15.9968 10.5209 16.4501 10.9501 16.7664 11.4753C17.0826 12.0005 17.2498 12.602 17.25 13.2151V16.5901Z" fill="white"/>
</svg>