<svg xmlns="http://www.w3.org/2000/svg" width="24" height="25" viewBox="0 0 24 25" fill="none">
<path d="M23.0306 7.37065L20.2275 10.1738C19.6612 16.7381 14.1253 21.84 7.49999 21.84C6.13874 21.84 5.01655 21.6244 4.16436 21.1988C3.47717 20.8547 3.19592 20.4863 3.12561 20.3813C3.06291 20.2873 3.02228 20.1803 3.00674 20.0683C2.99119 19.9564 3.00115 19.8424 3.03586 19.7348C3.07056 19.6273 3.12913 19.529 3.20717 19.4473C3.28521 19.3655 3.38072 19.3025 3.48655 19.2628C3.51092 19.2535 5.75905 18.39 7.18686 16.7466C6.39503 16.0956 5.70381 15.331 5.13561 14.4778C3.97311 12.7519 2.67186 9.75377 3.07311 5.27346C3.08583 5.1311 3.13896 4.99533 3.22625 4.88215C3.31354 4.76898 3.43136 4.6831 3.56582 4.63463C3.70028 4.58617 3.8458 4.57713 3.98522 4.60859C4.12465 4.64005 4.25218 4.7107 4.3528 4.81221C4.38561 4.84502 7.4728 7.91534 11.2472 8.91096V8.34002C11.2457 7.74133 11.3641 7.1484 11.5953 6.59615C11.8265 6.0439 12.1659 5.5435 12.5934 5.1244C13.0086 4.70977 13.5027 4.3825 14.0464 4.16191C14.5902 3.94132 15.1726 3.83187 15.7594 3.84002C16.5464 3.84779 17.3181 4.05907 17.9994 4.45334C18.6807 4.84761 19.2483 5.41144 19.6472 6.09002H22.5C22.6484 6.08991 22.7935 6.13383 22.917 6.21623C23.0404 6.29864 23.1366 6.41581 23.1935 6.55293C23.2503 6.69005 23.2651 6.84094 23.2361 6.9865C23.2071 7.13207 23.1356 7.26576 23.0306 7.37065Z" fill="white"/>
</svg>