<svg xmlns="http://www.w3.org/2000/svg" width="24" height="25" viewBox="0 0 24 25" fill="none">
<path d="M21.9684 6.60759C21.8801 6.26198 21.7109 5.94232 21.4747 5.675C21.2385 5.40767 20.9421 5.20033 20.61 5.07009C17.3962 3.82884 12.2812 3.84009 12 3.84009C11.7188 3.84009 6.60375 3.82884 3.39 5.07009C3.0579 5.20033 2.76153 5.40767 2.52534 5.675C2.28915 5.94232 2.1199 6.26198 2.03156 6.60759C1.78875 7.54322 1.5 9.25322 1.5 12.0901C1.5 14.927 1.78875 16.637 2.03156 17.5726C2.11977 17.9184 2.28895 18.2382 2.52515 18.5057C2.76136 18.7732 3.0578 18.9807 3.39 19.111C6.46875 20.2988 11.2875 20.3401 11.9381 20.3401H12.0619C12.7125 20.3401 17.5341 20.2988 20.61 19.111C20.9422 18.9807 21.2386 18.7732 21.4748 18.5057C21.711 18.2382 21.8802 17.9184 21.9684 17.5726C22.2113 16.6351 22.5 14.927 22.5 12.0901C22.5 9.25322 22.2113 7.54322 21.9684 6.60759ZM15.2081 12.4023L10.7081 15.4023C10.6516 15.44 10.586 15.4616 10.5181 15.4649C10.4503 15.4682 10.3829 15.453 10.323 15.4209C10.2631 15.3889 10.2131 15.3412 10.1782 15.2829C10.1434 15.2246 10.125 15.158 10.125 15.0901V9.09009C10.125 9.02218 10.1434 8.95554 10.1782 8.89727C10.2131 8.839 10.2631 8.7913 10.323 8.75925C10.3829 8.72719 10.4503 8.712 10.5181 8.71529C10.586 8.71857 10.6516 8.74022 10.7081 8.7779L15.2081 11.7779C15.2596 11.8121 15.3017 11.8585 15.3309 11.913C15.3601 11.9675 15.3754 12.0283 15.3754 12.0901C15.3754 12.1519 15.3601 12.2127 15.3309 12.2672C15.3017 12.3216 15.2596 12.368 15.2081 12.4023Z" fill="white"/>
</svg>