<svg xmlns="http://www.w3.org/2000/svg" width="24" height="25" viewBox="0 0 24 25" fill="none">
<path d="M16.5 2.34009H7.5C6.10807 2.34158 4.77358 2.89518 3.78933 3.87942C2.80509 4.86367 2.25149 6.19816 2.25 7.59009V16.5901C2.25149 17.982 2.80509 19.3165 3.78933 20.3008C4.77358 21.285 6.10807 21.8386 7.5 21.8401H16.5C17.8919 21.8386 19.2264 21.285 20.2107 20.3008C21.1949 19.3165 21.7485 17.982 21.75 16.5901V7.59009C21.7485 6.19816 21.1949 4.86367 20.2107 3.87942C19.2264 2.89518 17.8919 2.34158 16.5 2.34009ZM12 16.5901C11.11 16.5901 10.24 16.3262 9.49993 15.8317C8.75991 15.3372 8.18314 14.6344 7.84254 13.8122C7.50195 12.9899 7.41283 12.0851 7.58647 11.2122C7.7601 10.3393 8.18868 9.53744 8.81802 8.90811C9.44736 8.27877 10.2492 7.85019 11.1221 7.67655C11.995 7.50292 12.8998 7.59204 13.7221 7.93263C14.5443 8.27322 15.2471 8.85 15.7416 9.59002C16.2361 10.33 16.5 11.2001 16.5 12.0901C16.4988 13.2832 16.0243 14.4271 15.1806 15.2707C14.337 16.1143 13.1931 16.5888 12 16.5901ZM17.625 7.59009C17.4025 7.59009 17.185 7.52411 17 7.40049C16.815 7.27688 16.6708 7.10117 16.5856 6.89561C16.5005 6.69004 16.4782 6.46384 16.5216 6.24561C16.565 6.02738 16.6722 5.82693 16.8295 5.66959C16.9868 5.51226 17.1873 5.40511 17.4055 5.3617C17.6238 5.3183 17.85 5.34057 18.0555 5.42572C18.2611 5.51087 18.4368 5.65507 18.5604 5.84007C18.684 6.02508 18.75 6.24258 18.75 6.46509C18.75 6.76346 18.6315 7.0496 18.4205 7.26058C18.2095 7.47156 17.9234 7.59009 17.625 7.59009ZM15 12.0901C15 12.6834 14.8241 13.2635 14.4944 13.7568C14.1648 14.2501 13.6962 14.6347 13.1481 14.8617C12.5999 15.0888 11.9967 15.1482 11.4147 15.0324C10.8328 14.9167 10.2982 14.631 9.87868 14.2114C9.45912 13.7919 9.1734 13.2573 9.05764 12.6754C8.94189 12.0934 9.0013 11.4902 9.22836 10.942C9.45542 10.3939 9.83994 9.92532 10.3333 9.59568C10.8266 9.26604 11.4067 9.09009 12 9.09009C12.7956 9.09009 13.5587 9.40616 14.1213 9.96877C14.6839 10.5314 15 11.2944 15 12.0901Z" fill="white"/>
</svg>