<svg xmlns="http://www.w3.org/2000/svg" width="24" height="25" viewBox="0 0 24 25" fill="none">
<path d="M21.75 12.1557C21.7144 17.4516 17.3944 21.7866 12.0994 21.8391C11.2802 21.8478 10.4631 21.7533 9.66749 21.5579C9.61963 21.5459 9.57459 21.5247 9.53496 21.4953C9.49533 21.4659 9.46188 21.429 9.43654 21.3867C9.4112 21.3443 9.39446 21.2974 9.38727 21.2486C9.38009 21.1998 9.38261 21.1501 9.39468 21.1022L10.2047 17.8632C10.9947 18.2591 11.8663 18.4652 12.75 18.4651C16.2187 18.4651 19.0031 15.3291 18.7322 11.5876C18.6587 10.6164 18.3759 9.67269 17.9033 8.82115C17.4307 7.96962 16.7794 7.23044 15.9941 6.65437C15.2088 6.07829 14.3082 5.67897 13.354 5.48381C12.3999 5.28865 11.4148 5.30228 10.4664 5.52375C9.51802 5.74523 8.62879 6.16931 7.85976 6.76688C7.09073 7.36445 6.46012 8.12136 6.01122 8.98565C5.56232 9.84993 5.30576 10.8011 5.25916 11.7739C5.21256 12.7467 5.37702 13.7181 5.74124 14.6213C5.77908 14.7155 5.83566 14.8011 5.90755 14.8728C5.97944 14.9445 6.06514 15.0009 6.15946 15.0385C6.25378 15.0761 6.35476 15.0942 6.45627 15.0916C6.55778 15.089 6.6577 15.0658 6.74999 15.0235C6.92601 14.9382 7.06282 14.7889 7.13251 14.6061C7.2022 14.4234 7.19951 14.2209 7.12499 14.0401C6.84468 13.3371 6.71965 12.5819 6.75848 11.8261C6.79731 11.0703 6.99908 10.3318 7.34996 9.6613C7.70083 8.99077 8.19253 8.40403 8.79135 7.94128C9.39016 7.47853 10.0819 7.15071 10.8193 6.98029C11.5566 6.80986 12.3221 6.80086 13.0632 6.9539C13.8044 7.10695 14.5037 7.41841 15.1132 7.86695C15.7228 8.31549 16.2281 8.89051 16.5947 9.5526C16.9612 10.2147 17.1803 10.9482 17.2369 11.7029C17.4375 14.5651 15.3497 16.9651 12.75 16.9651C11.9854 16.9647 11.2354 16.756 10.5806 16.3613L11.9775 10.7719C12.0219 10.5803 11.9893 10.3789 11.8867 10.2112C11.784 10.0434 11.6196 9.92262 11.4288 9.87492C11.238 9.82721 11.036 9.85637 10.8665 9.95612C10.697 10.0559 10.5735 10.2182 10.5225 10.4082L8.00437 20.4816C7.9907 20.5365 7.9648 20.5875 7.92861 20.631C7.89243 20.6744 7.84689 20.7091 7.79541 20.7324C7.74393 20.7558 7.68783 20.7672 7.63132 20.7658C7.5748 20.7644 7.51933 20.7503 7.46906 20.7244C5.87852 19.8898 4.54946 18.632 3.6285 17.0899C2.70755 15.5477 2.2305 13.7812 2.24999 11.9851C2.30624 6.7013 6.62531 2.3888 11.9062 2.34005C13.2 2.32758 14.4834 2.57275 15.6815 3.06126C16.8796 3.54978 17.9684 4.27187 18.8846 5.18545C19.8008 6.09904 20.526 7.18584 21.018 8.38253C21.5099 9.57922 21.7588 10.8618 21.75 12.1557Z" fill="white"/>
</svg>