<svg xmlns="http://www.w3.org/2000/svg" width="61" height="61" viewBox="0 0 61 61" fill="none">
<g clip-path="url(#clip0_6167_111979)">
<path fill-rule="evenodd" clip-rule="evenodd" d="M50.6795 42.5433L43.3795 40.8433L35.2795 32.6433L41.5795 26.3433C48.5795 28.8433 56.3795 25.1433 58.8795 18.0433C60.0795 14.7433 59.8795 11.0433 58.3795 7.84331L57.2795 5.44331L50.5795 12.1433L47.4795 9.14331L54.0795 2.54331L51.6795 1.44331C44.8795 -1.75669 36.8795 1.24331 33.6795 8.04331C32.2795 11.1433 32.0795 14.8433 33.2795 18.1433L30.7795 20.6433L12.5795 2.44331C11.2795 1.04331 9.37949 0.343308 7.47949 0.343308C3.47949 0.343308 0.279487 3.54331 0.279487 7.54331C0.279487 9.44331 1.07949 11.2433 2.37949 12.6433L20.5795 30.8433L18.0795 33.2433C11.0795 30.7433 3.27949 34.4433 0.779487 41.5433C-0.420514 44.8433 -0.220513 48.5433 1.27949 51.7433L2.47949 54.1433L9.07949 47.5433L12.1795 50.6433L5.57949 57.2433L7.97949 58.3433C9.77949 59.1433 11.6795 59.6433 13.6795 59.6433C21.1795 59.6433 27.1795 53.6433 27.2795 46.1433C27.2795 44.6433 26.9795 43.0433 26.4795 41.6433L32.7795 35.3433L40.8795 43.4433L42.6795 50.7433L52.0795 60.1433L60.2795 51.9433L50.6795 42.5433ZM37.0795 17.8433C34.7795 12.9433 36.8795 7.04331 41.8795 4.74331C43.6795 3.94331 45.5795 3.64331 47.4795 3.94331L42.2795 9.14331L50.5795 17.4433L55.7795 12.2433C56.5795 17.6433 52.8795 22.6433 47.4795 23.4433C45.5795 23.7433 43.5795 23.4433 41.8795 22.6433L40.6795 22.0433L36.3795 26.3433L33.2795 23.2433L37.4795 19.0433L37.0795 17.8433ZM3.97949 7.54331C3.97949 5.54331 5.57949 4.04331 7.47949 4.04331C8.37949 4.04331 9.27949 4.44331 9.97949 5.04331L33.7795 28.9433L28.7795 33.9433L4.97949 10.0433C4.37949 9.34331 3.97949 8.44331 3.97949 7.54331ZM20.5795 53.0433C18.3795 55.2433 15.2795 56.2433 12.1795 55.8433L17.3795 50.6433L9.07949 42.3433L3.87949 47.5433C3.07949 42.1433 6.77949 37.1433 12.1795 36.3433C14.0795 36.0433 16.0795 36.3433 17.7795 37.1433L18.9795 37.7433L23.2795 33.5433L26.3795 36.6433L22.1795 40.8433L22.6795 42.0433C24.2795 45.6433 23.4795 50.0433 20.5795 53.0433ZM45.8795 48.8433L44.9795 44.9433L48.8795 45.8433L54.9795 51.9433L52.0795 54.8433L45.8795 48.8433Z" fill="#FFFF00"/>
</g>
<defs>
<clipPath id="clip0_6167_111979">
<rect width="61" height="60" fill="white" transform="translate(0 0.159912)"/>
</clipPath>
</defs>
</svg>